<svg viewBox="0 0 39.65 43.42" xmlns="http://www.w3.org/2000/svg"><path d="m37.76 33.77c-3.18 0-4.41-1.86-4.41-13.41 0-9-4.1-14.74-11.18-15.58v-2.89a1.89 1.89 0 0 0 -3.78 0v2.83c-7.55.61-11.92 6.36-11.92 15.64 0 11.55-1.38 13.41-4.56 13.41a1.81 1.81 0 0 0 -1.91 1.77 1.76 1.76 0 0 0 1.86 1.77h12.28a7.75 7.75 0 0 0 1.72 4.42 5.14 5.14 0 0 0 3.87 1.69 5.3 5.3 0 0 0 3.88-1.7 7.84 7.84 0 0 0 1.84-4.41h12.31a1.77 1.77 0 1 0 0-3.54zm-16.9 5.38a1.41 1.41 0 0 1 -1.13.49 1.33 1.33 0 0 1 -1.08-.49 3 3 0 0 1 -.65-1.84h3.66a2.92 2.92 0 0 1 -.8 1.84zm-.78-5.61h-.27-.27-11.16c1.77-3.31 1.77-8.44 1.77-13.25 0-7.69 3.33-11.77 9.39-11.77h.54c6.06 0 9.4 4.08 9.4 11.77 0 4.81 0 9.94 1.76 13.25zm6.74-16.75a1.66 1.66 0 0 1 -1.55 1.75h-.1a1.65 1.65 0 0 1 -1.65-1.54 3.45 3.45 0 0 0 -2-3 1.67 1.67 0 0 1 -.88-2.16 1.64 1.64 0 0 1 2.13-.9 6.8 6.8 0 0 1 4.05 5.85z"/></svg>