<svg viewBox="0 0 11.95 13.42" xmlns="http://www.w3.org/2000/svg"><path d="m11.82 1.21-1.06-1.08a.46.46 0 0 0 -.31-.13.46.46 0 0 0 -.32.13l-6.13 6.27a.38.38 0 0 0 -.09.15l-.74 1.76a.45.45 0 0 0 .1.47.43.43 0 0 0 .31.13.51.51 0 0 0 .17 0l1.74-.69a.49.49 0 0 0 .15-.1l6.18-6.26a.44.44 0 0 0 0-.65zm-6.75 6.19-.7.28.28-.68 5.8-5.89.43.45zm4.52-.53v6a.61.61 0 0 1 -.62.59h-8.38a.58.58 0 0 1 -.59-.63v-11.23a.57.57 0 0 1 .59-.6h6.13a.59.59 0 0 1 .59.59.58.58 0 0 1 -.59.59h-5.54v10h7.23v-5.31a.59.59 0 0 1 .59-.59.6.6 0 0 1 .59.59z"/></svg>