<svg xmlns="http://www.w3.org/2000/svg" viewBox="0 0 10.03 11.8"><defs></defs><title>Asset 12</title><g id="Layer_2" data-name="Layer 2"><g id="Layer_1-2" data-name="Layer 1"><path id="_Compound_Path_" data-name="&lt;Compound Path&gt;" class="cls-1" d="M10,6.44a.61.61,0,0,0-.54-.39H7.52V.59A.65.65,0,0,0,6.86,0H3.17a.65.65,0,0,0-.66.59V6.05H.59a.61.61,0,0,0-.54.39.58.58,0,0,0,.12.65l4.42,4.53A.62.62,0,0,0,5,11.8a.58.58,0,0,0,.43-.18L9.86,7.09A.58.58,0,0,0,10,6.44ZM5,10.31,2,7.23H3.17a.49.49,0,0,0,.52-.54V1.18H6.34V6.69a.49.49,0,0,0,.52.54H8Z"/></g></g></svg>