<svg viewBox="0 0 15.08 8.85" xmlns="http://www.w3.org/2000/svg"><path d="m15 4.06c-.14-.17-2.81-4.06-7.46-4.06s-7.32 3.89-7.43 4.06a.65.65 0 0 0 0 .73c.11.21 2.78 4.06 7.43 4.06s7.32-3.85 7.46-4.06a.69.69 0 0 0 0-.73zm-7.46 3.48a8.18 8.18 0 0 1 -6.06-3.12 8.19 8.19 0 0 1 6.06-3.11 8.23 8.23 0 0 1 6.06 3.11 8.2 8.2 0 0 1 -6.06 3.12zm.38-5.81a2.68 2.68 0 0 0 -2 .52 2.72 2.72 0 0 0 1.24 4.87h.38a2.69 2.69 0 0 0 1.63-.52 2.74 2.74 0 0 0 .54-3.81 2.7 2.7 0 0 0 -1.79-1.06zm.66 4.08a1.74 1.74 0 0 1 -2.08-2.81 1.77 1.77 0 0 1 1.28-.3 1.74 1.74 0 0 1 .8 3.11zm-.07-2.36a.62.62 0 0 1 .19.46.64.64 0 0 1 -.19.47.65.65 0 0 1 -.92 0 .65.65 0 0 1 -.2-.47.63.63 0 0 1 .2-.46.65.65 0 0 1 .92 0z" /></svg>