<svg viewBox="0 0 15.08 13.6" xmlns="http://www.w3.org/2000/svg"><path d="m2.58 2.79a.65.65 0 0 1 .66-.66h8.6a.66.66 0 1 1 0 1.31h-8.6a.65.65 0 0 1 -.66-.65zm1.73-1.64h6.46a.58.58 0 0 0 0-1.15h-6.46a.57.57 0 0 0 -.57.57.57.57 0 0 0 .57.58zm10.77 2.39v1.79a.58.58 0 0 1 0 .19l-2.08 7.6a.65.65 0 0 1 -.63.48h-9.65a.66.66 0 0 1 -.63-.48l-2.09-7.61a.3.3 0 0 1 0-.1.31.31 0 0 1 0-.1v-1.77a.65.65 0 0 1 .66-.65.65.65 0 0 1 .65.65v1.21h12.46v-1.21a.65.65 0 0 1 .65-.65.66.66 0 0 1 .66.65zm-1.52 2.52h-12l1.71 6.23h8.6zm-8 3.28h3.91a.66.66 0 1 0 0-1.34h-3.87a.66.66 0 0 0 0 1.31z" /></svg>