<svg enable-background="new 0 0 13.2 13.2" viewBox="0 0 13.2 13.2" xmlns="http://www.w3.org/2000/svg"><path d="m6.6 4.4c-1.2 0-2.2 1-2.2 2.2s1 2.2 2.2 2.2 2.2-1 2.2-2.2c0-1.2-1-2.2-2.2-2.2zm0 3.3c-.6 0-1.1-.5-1.1-1.1s.5-1.1 1.1-1.1 1.1.5 1.1 1.1c0 .6-.5 1.1-1.1 1.1zm6.6-1.8c-.1-.4-.4-.7-.9-.7-.4 0-.7-.2-.8-.6-.1-.3-.1-.8.2-1 .3-.3.3-.8.1-1.1-.3-.4-.6-.7-1-1.1-.1-.1-.3-.2-.5-.2s-.5.1-.6.3c-.2.2-.5.3-.7.3-.1 0-.2 0-.3-.1-.4-.1-.6-.4-.6-.8s-.3-.8-.7-.9c-.5 0-1 0-1.5 0-.4.1-.7.4-.7.8s-.2.7-.6.9c-.1 0-.2.1-.3.1-.3 0-.5-.2-.7-.3-.1-.2-.4-.3-.6-.3s-.4.1-.5.2c-.4.3-.7.7-1 1.1-.3.3-.3.8 0 1.1s.4.7.2 1c-.1.3-.5.5-.8.5-.5 0-.9.3-.9.7v1.5c.1.4.4.7.9.7.4 0 .7.2.8.6.1.3 0 .7-.2 1-.3.3-.4.8-.1 1.1.3.4.7.7 1.1 1.1.1.1.3.2.5.2s.4-.1.6-.3.4-.3.7-.3c.1 0 .2 0 .3.1.3.1.6.5.6.9s.3.8.7.9h.8.7c.4 0 .8-.4.7-.8 0-.4.2-.7.5-.9.1 0 .2-.1.3-.1.3 0 .5.1.7.3s.4.3.6.3.4-.1.5-.2c.4-.3.8-.7 1.1-1.1.3-.3.2-.8-.1-1.1-.4-.3-.4-.9-.1-1.3.2-.2.4-.3.7-.3h.1c.4 0 .7-.3.8-.7 0-.5 0-1 0-1.5zm-1.1 1.2c-.7 0-1.3.4-1.6 1.1s-.1 1.4.4 1.9c-.2.3-.5.5-.7.7-.3-.3-.8-.5-1.3-.5-.2 0-.4 0-.6.1-.6.3-1.1.9-1.1 1.6-.3 0-.7 0-1 0 0-.7-.4-1.3-1.1-1.6-.2-.1-.4-.1-.7-.1-.5 0-.9.2-1.3.5-.3-.2-.5-.5-.7-.7.5-.5.6-1.3.3-1.9-.2-.7-.9-1.1-1.6-1.1 0-.3 0-.7 0-1 .7 0 1.3-.4 1.6-1.1s.2-1.4-.3-1.9c.2-.3.5-.5.7-.7.3.3.8.5 1.3.5.2 0 .4-.1.6-.2.6-.2 1.1-.8 1.1-1.5h1c0 .7.4 1.4 1.1 1.6.2.1.4.1.6.1.5 0 .9-.2 1.3-.5.3.2.5.5.7.7-.5.5-.6 1.3-.4 1.9.3.7.9 1.1 1.6 1.1.1.3.1.7.1 1z"/></svg>