<svg viewBox="0 0 43.42 28.32" xmlns="http://www.w3.org/2000/svg"><path d="m29.42 18.66a6.61 6.61 0 1 0 -6.62-6.61 6.63 6.63 0 0 0 6.62 6.61zm0-10.38a3.77 3.77 0 1 1 -3.79 3.77 3.78 3.78 0 0 1 3.79-3.77zm-22.02.72a1.42 1.42 0 0 1 1.41-1.45h8.24a1.42 1.42 0 0 1 0 2.83h-8.24a1.41 1.41 0 0 1 -1.41-1.38zm9.65 6.61h-8.24a1.42 1.42 0 0 1 0-2.84h8.24a1.42 1.42 0 0 1 0 2.84zm-2.05 3.74a1.42 1.42 0 0 1 -1.41 1.42h-4.78a1.42 1.42 0 0 1 0-2.83h4.76a1.41 1.41 0 0 1 1.43 1.41zm28.42-16.24a3.11 3.11 0 0 0 -3.11-3.11h-37.2a3.11 3.11 0 0 0 -3.11 3.11v22.1a3.11 3.11 0 0 0 3.11 3.11h37.2a3.11 3.11 0 0 0 3.11-3.11zm-39.64.67h35.87v19.69c-1.89-2-5.53-3.32-6.9-3.79a1.45 1.45 0 0 0 -.92 0l-2.41.85-2.42-.84a1.48 1.48 0 0 0 -.93 0c-1.58.54-6 2-7.7 4.81h-14.59zm18.76 20.76a12.1 12.1 0 0 1 4-2l2.42.83a1.44 1.44 0 0 0 .94 0l2.41-.81a12.35 12.35 0 0 1 4 2z" /></svg>