<svg viewBox="0 0 15.08 13.11" xmlns="http://www.w3.org/2000/svg"><path d="m14.42 0h-13.76a.65.65 0 0 0 -.66.66v8.34a.64.64 0 0 0 .66.65h7.7v2.79a.69.69 0 0 0 .46.61.73.73 0 0 0 .25 0 .69.69 0 0 0 .51-.24l2.72-3.2h2.12a.65.65 0 0 0 .66-.61v-8.34a.66.66 0 0 0 -.66-.66zm-.65 8.36h-1.77a.71.71 0 0 0 -.53.24l-1.8 2.07v-1.67a.6.6 0 0 0 -.58-.66h-7.78v-7h12.46zm-10.72-4.75a.66.66 0 0 1 .66-.61h4.75a.66.66 0 0 1 0 1.31h-4.75a.66.66 0 0 1 -.66-.7zm7.2.5a.66.66 0 1 1 .93 0 .68.68 0 0 1 -.47.19.66.66 0 0 1 -.46-.19z"/></svg>