<svg xmlns="http://www.w3.org/2000/svg" viewBox="0 0 28.08 36.34"><defs></defs><title>Asset 12</title><g id="Layer_2" data-name="Layer 2"><g id="Layer_1-2" data-name="Layer 1"><path id="_Compound_Path_" data-name="&lt;Compound Path&gt;" class="cls-1" d="M28.08,1.65A1.65,1.65,0,0,0,26.43,0H1.65A1.65,1.65,0,0,0,0,1.65v33a1.65,1.65,0,0,0,1.65,1.65H26.43a1.65,1.65,0,0,0,1.65-1.65ZM24.78,33H3.3V3.3H24.78Zm-18-7a1.65,1.65,0,0,1,1.66-1.65H19.61a1.65,1.65,0,1,1,0,3.3H8.48A1.65,1.65,0,0,1,6.82,26Zm.26-7.85a1.65,1.65,0,0,1,1.65-1.65H19.61a1.65,1.65,0,1,1,0,3.3H8.73A1.65,1.65,0,0,1,7.08,18.17Zm0-7.85A1.65,1.65,0,0,1,8.73,8.67H19.61a1.66,1.66,0,0,1,0,3.31H8.73A1.65,1.65,0,0,1,7.08,10.32Z"/></g></g></svg>