<svg viewBox="0 0 13.44 11.8" xmlns="http://www.w3.org/2000/svg"><path d="m10.35 3.27c-.69 0-2.41 1.73-3.66 2.93-1.91 1.8-3.69 3.63-5.15 3.63h-.88a.66.66 0 1 1 0-1.31h.88c.91 0 2.75-1.83 4.23-3.26 1.81-1.74 3.36-3.26 4.58-3.26h.85l-.9-.87a.63.63 0 0 1 0-.9.67.67 0 0 1 .93 0l2 2a.64.64 0 0 1 .19.46.66.66 0 0 1 -.19.46l-2 2a.65.65 0 0 1 -.93 0 .67.67 0 0 1 0-.94l.9-.92zm.88 3.38a.65.65 0 0 0 -.93 0 .69.69 0 0 0 0 .95l.9.92h-.85c-.54 0-1.43-.8-2.33-1.63a.64.64 0 0 0 -.92 0 .66.66 0 0 0 0 .94c1.36 1.27 2.27 2 3.22 2h.85l-.9.87a.64.64 0 0 0 0 .91.65.65 0 0 0 .46.19.7.7 0 0 0 .47-.19l2-2a.66.66 0 0 0 0-.93zm-10.57-3.38h.88c.69 0 1.72.88 2.54 1.63a.71.71 0 0 0 .44.18.63.63 0 0 0 .48-.21.67.67 0 0 0 0-.94c-1.32-1.17-2.39-1.93-3.46-1.93h-.88a.66.66 0 0 0 -.66.62.65.65 0 0 0 .66.65z" /></svg>