<svg xmlns="http://www.w3.org/2000/svg" viewBox="0 0 34.69 37.58"><defs></defs><title>Asset 11</title><g id="Layer_2" data-name="Layer 2"><g id="Layer_1-2" data-name="Layer 1"><path id="_Compound_Path_" data-name="&lt;Compound Path&gt;" class="cls-1" d="M8.67,7.35V2.06a2.07,2.07,0,0,1,4.13,0V7.35a2.07,2.07,0,0,1-4.13,0ZM24,9.41A2.07,2.07,0,0,0,26,7.35V2.06a2.07,2.07,0,0,0-4.13,0V7.35A2.06,2.06,0,0,0,24,9.41ZM10,16.52H24.68a1.65,1.65,0,1,0,0-3.3H10a1.65,1.65,0,0,0,0,3.3ZM33,2.89H29.59a1.65,1.65,0,1,0,0,3.3h1.8V34.28H3.3V6.19H5.1a1.65,1.65,0,0,0,0-3.3H1.65A1.79,1.79,0,0,0,0,4.69V35.93a1.65,1.65,0,0,0,1.65,1.65H33a1.65,1.65,0,0,0,1.65-1.65V4.69A1.79,1.79,0,0,0,33,2.89ZM16,6.19h2.72a1.65,1.65,0,0,0,0-3.3H16a1.65,1.65,0,1,0,0,3.3ZM10,24H24.68a1.65,1.65,0,0,0,0-3.3H10A1.65,1.65,0,0,0,10,24Z"/></g></g></svg>