<svg viewBox="0 0 42.95 32.1" xmlns="http://www.w3.org/2000/svg"><path d="m16.72 20a10 10 0 1 0 -10-10 10 10 0 0 0 10 10zm0-16.17a6.2 6.2 0 1 1 -6.21 6.17 6.21 6.21 0 0 1 6.21-6.22zm4.54 17.1a1.88 1.88 0 0 0 -1.55.19l-3 1.81-3-1.81a1.88 1.88 0 0 0 -1.55-.19c-2.84.86-12.16 4.21-12.16 9.28a1.89 1.89 0 0 0 1.89 1.89h29.66a1.89 1.89 0 0 0 1.88-1.89c0-5.07-9.31-8.42-12.17-9.33zm-16 7.44a28.3 28.3 0 0 1 7.2-3.57l3.23 1.95a1.87 1.87 0 0 0 2 0l3.22-1.95a28.3 28.3 0 0 1 7.2 3.57zm37.74-1.45a1.39 1.39 0 0 1 -1.41 1.4h-6.36a1.42 1.42 0 1 1 0-2.83h4.2a9.57 9.57 0 0 0 -3.24-2.49 1.39 1.39 0 0 1 -.56-1.91 1.43 1.43 0 0 1 1.92-.56c2.02 1.14 5.45 3.47 5.45 6.39zm-8-12.49a3.75 3.75 0 0 0 -3.75-3.75 3.63 3.63 0 0 0 -1.46.3 1.42 1.42 0 0 1 -1.1-2.61 6.57 6.57 0 1 1 -2.37 10.41 1.41 1.41 0 1 1 2.12-1.87 3.75 3.75 0 0 0 6.56-2.48z" /></svg>