<svg viewBox="0 0 42.48 37.76" xmlns="http://www.w3.org/2000/svg"><path d="m33.66 20.44a3.28 3.28 0 0 1 1 2.33 3.31 3.31 0 1 1 -6.61 0 3.3 3.3 0 0 1 5.64-2.33zm8.82-7.38v20.87a3.84 3.84 0 0 1 -3.83 3.83h-34.15a4.51 4.51 0 0 1 -4.5-4.5v-27.61a5.65 5.65 0 0 1 5.64-5.65h26.1a4.63 4.63 0 0 1 4.6 4.72v2.83h.87a5.48 5.48 0 0 1 5.27 5.51zm-39-7.4a1.89 1.89 0 0 0 1.92 1.89h27.17v-2.95a.83.83 0 0 0 -.83-.82h-26.34a1.89 1.89 0 0 0 -1.89 1.88zm35.19 7.4a1.71 1.71 0 0 0 -1.49-1.73h-32.63c-.43 0-.77.58-.77 1v20.93a.72.72 0 0 0 .72.74h34.15a0 0 0 0 0 .05 0z"/></svg>