<?xml version="1.0" encoding="utf-8"?>
<!-- Generator: Adobe Illustrator 22.1.0, SVG Export Plug-In . SVG Version: 6.00 Build 0)  -->
<svg version="1.1" id="Layer_1" xmlns="http://www.w3.org/2000/svg" xmlns:xlink="http://www.w3.org/1999/xlink" x="0px" y="0px"
	 viewBox="0 0 24 24" style="enable-background:new 0 0 24 24;" xml:space="preserve">

<path class="st0" d="M20.4,7.2H3.6c-2,0-3.6,1.6-3.6,3.6V18h4.8v4.8h14.4V18H24v-7.2C24,8.8,22.4,7.2,20.4,7.2z M16.8,20.4H7.2v-6
	h9.6V20.4z M20.4,12c-0.7,0-1.2-0.5-1.2-1.2c0-0.7,0.5-1.2,1.2-1.2c0.7,0,1.2,0.5,1.2,1.2C21.6,11.5,21.1,12,20.4,12z M19.2,1.2H4.8
	V6h14.4V1.2z"/>
<path class="st1" d="M0,0h24v24H0V0z" fill="none"/>
</svg>
