<?xml version="1.0" encoding="utf-8"?>
<!-- Generator: Adobe Illustrator 22.1.0, SVG Export Plug-In . SVG Version: 6.00 Build 0)  -->
<svg version="1.1" id="Layer_1" xmlns="http://www.w3.org/2000/svg" xmlns:xlink="http://www.w3.org/1999/xlink" x="0px" y="0px"
	 viewBox="0 0 14 40" style="enable-background:new 0 0 14 40;" xml:space="preserve">
<g>
	<path d="M9,28.4h5c-2.3,3.9-4.7,7.7-7,11.6c-2.3-3.9-4.6-7.7-7-11.6c0.2,0,3.5,0,5,0c0.2,0,0.3-0.2,0.3-0.3
		c0-1.4,0-4.5,0-4.7h3.2V28C8.6,28.2,8.8,28.4,9,28.4z"/>
	<path d="M0,11.6C2.4,7.7,4.7,3.9,7,0c2.3,3.9,4.6,7.7,7,11.6c-0.1,0-3.5,0-5,0c-0.3,0-0.4,0.1-0.4,0.4
		c0,1.4,0,2.9,0,4.3c0,0.1,0,0.2,0,0.4c-1.1,0-2.2,0-3.2,0c0-0.1,0-0.2,0-0.4c0-1.4,0-2.9,0-4.3c0-0.3-0.1-0.4-0.4-0.4
		C3.5,11.6,0.2,11.6,0,11.6z"/>
</g>
</svg>
