<svg xmlns="http://www.w3.org/2000/svg" viewBox="0 0 27.06 29.83"><title>Asset 1</title><g id="Layer_2" data-name="Layer 2"><g id="icons"><path d="M26.72,11.84a1.14,1.14,0,0,1,0,1.62l-13,13a10.13,10.13,0,0,1-7,3.34,7,7,0,0,1-1.76-.23A6.62,6.62,0,0,1,.26,24.82c-.8-3,.27-6.17,2.92-8.82L17.71,1.48c2.36-2.36,5.65-1.62,7.54.28a5,5,0,0,1,.12,7.37L10.71,23.77c-1.94,1.95-4.11,1.8-5.26.66s-1.26-3.29.68-5.23l9.92-9.91a1.15,1.15,0,0,1,1.62,1.63l-9.91,9.9c-.87.87-1,1.67-.68,2s1.14.21,2-.66L23.75,7.51a2.76,2.76,0,0,0-.12-4.13c-1.1-1.1-2.91-1.66-4.29-.28L4.8,17.62c-2,2.05-2.9,4.46-2.33,6.61a4.35,4.35,0,0,0,3.07,3.15c2,.55,4.35-.35,6.52-2.51l13-13a1.14,1.14,0,0,1,1.62,0Z"/></g></g></svg>