<?xml version="1.0" encoding="utf-8"?>
<!-- Generator: Adobe Illustrator 23.0.3, SVG Export Plug-In . SVG Version: 6.00 Build 0)  -->
<svg version="1.1" id="Layer_1" xmlns="http://www.w3.org/2000/svg" xmlns:xlink="http://www.w3.org/1999/xlink" x="0px" y="0px"
	 viewBox="0 0 12.3 12.3" style="enable-background:new 0 0 12.3 12.3;" xml:space="preserve">
<path d="M7.1,5.1l0-4.1c0-0.6-0.4-1-1-1c0,0,0,0,0,0c-0.5,0-1,0.4-1,1l0,4.1H1c-0.6,0-1,0.4-1,1c0,0.6,0.4,1,1,1h4.1v4.1
	c0,0.6,0.4,1,1,1c0.6,0,1-0.4,1-1l0-4.1l4.1,0c0.6,0,1-0.4,1-1c0,0,0,0,0,0c0-0.5-0.4-1-1-1H7.1z"/>
</svg>
