<svg xmlns="http://www.w3.org/2000/svg" viewBox="0 0 27.06 29.83"><title>Asset 2</title><g id="Layer_2" data-name="Layer 2"><g id="icons"><path d="M9.09,22.16c-.87.86-1.69,1-2,.65s-.18-1.12.68-2l4-4-1.62-1.62-4,4c-1.94,1.94-1.81,4.1-.68,5.23s3.32,1.29,5.26-.65l4-4-1.62-1.62ZM17.67,9.3a1.14,1.14,0,0,0-1.62,0l-2.21,2.2,1.62,1.63,2.21-2.21A1.14,1.14,0,0,0,17.67,9.3ZM12.05,24.87C9.88,27,7.57,27.93,5.54,27.39a4.38,4.38,0,0,1-3.07-3.16c-.57-2.15.28-4.55,2.33-6.6l3.86-3.86L7,12.14,3.18,16C.53,18.65-.54,21.86.25,24.82A6.64,6.64,0,0,0,4.94,29.6a6.54,6.54,0,0,0,1.76.23,10.16,10.16,0,0,0,7-3.33l3.86-3.86L15.91,21Zm-.31-8-1.62-1.62-4,4c-1.94,1.94-1.81,4.1-.68,5.23s3.32,1.29,5.26-.65l4-4-1.62-1.62-4,4c-.87.86-1.69,1-2,.65s-.18-1.12.68-2ZM25.25,1.76c-1.89-1.89-5.18-2.64-7.54-.28l-7,6.94,1.63,1.63,6.94-6.94a3,3,0,0,1,4.3.27,2.76,2.76,0,0,1,.12,4.13l-7,7,1.62,1.62,7-6.95A5,5,0,0,0,25.25,1.76Zm1.47,10.08a1.14,1.14,0,0,0-1.62,0L19.63,17.3l1.63,1.62,5.46-5.46A1.14,1.14,0,0,0,26.72,11.84Z"/><path d="M26,27.36a1.18,1.18,0,0,1-.81.34,1.14,1.14,0,0,1-.81-.34l-5.76-5.77L17,20l-1.22-1.22-3-2.95-1.62-1.63L9.71,12.72,8.09,11.09l-7-7a1.14,1.14,0,0,1,0-1.62,1.1,1.1,0,0,1,.81-.34,1.14,1.14,0,0,1,.81.34l8.63,8.63,1.45,1.45,1.62,1.63,2.95,2.95,1.22,1.22L20.21,20,26,25.74A1.14,1.14,0,0,1,26,27.36Z"/></g></g></svg>